<svg class="" id="outputsvg"  xmlns="http://www.w3.org/2000/svg" style="transform: matrix(1.01591, 0, 0, 1.01591, 0, 0); transform-origin: 50% 50%; cursor: move; transition: transform 200ms ease-in-out;" width="1300" height="396" viewBox="0 0 13000 3960"><g id="l6UCmEuoGCrIWakmz4Eg6mW" fill="rgb(121,255,254)" style="transform: none;"><g style="transform: none;"><path id="pc7PqrXla" d="M1090 3652 c-8 -9 -40 -47 -71 -83 l-56 -67 -5 -821 c-3 -452 -8 -824 -12 -828 -6 -6 -49 3 -194 39 -42 11 -43 10 -75 -26 -50 -58 -107 -157 -107 -185 0 -23 8 -29 68 -49 60 -20 126 -37 247 -62 72 -15 160 -37 178 -45 16 -7 17 42 17 952 l0 959 63 -8 c34 -5 89 -12 122 -17 33 -5 112 -14 175 -20 63 -6 149 -16 190 -21 41 -5 127 -15 191 -22 l116 -12 0 -220 c0 -122 1 -356 1 -522 l2 -301 93 -22 c50 -12 103 -25 117 -27 14 -3 34 -9 45 -14 11 -4 49 -14 85 -20 59 -11 200 -58 242 -81 10 -5 22 -9 28 -9 28 0 232 -112 268 -147 8 -8 28 -20 46 -27 18 -7 40 -26 51 -42 17 -27 78 -104 118 -148 9 -11 17 -23 17 -27 0 -4 6 -14 13 -21 7 -7 29 -48 50 -90 74 -151 100 -325 77 -513 -7 -58 -17 -108 -22 -111 -4 -3 -8 -13 -8 -23 0 -23 -41 -124 -91 -226 -21 -45 -39 -86 -39 -93 0 -7 -5 -12 -11 -12 -6 0 -9 -7 -5 -15 3 -8 1 -15 -4 -15 -6 0 -10 -7 -10 -15 0 -8 5 -15 10 -15 6 0 10 5 10 11 0 6 14 28 30 49 17 21 30 42 30 48 0 5 6 12 14 15 8 3 17 20 21 38 4 18 22 55 39 83 18 28 40 71 50 96 10 25 29 68 42 96 13 28 24 58 24 66 0 8 3 18 7 22 9 9 30 70 49 146 34 130 20 416 -25 525 -25 61 -34 81 -42 95 -4 8 -20 38 -35 65 -49 93 -179 239 -259 291 -22 15 -44 33 -48 41 -4 7 -12 13 -17 13 -5 0 -33 15 -62 33 -47 29 -70 41 -153 77 -11 5 -38 14 -60 21 -22 6 -58 17 -80 24 -64 20 -228 57 -315 70 -19 3 -41 9 -48 13 -10 7 -14 104 -18 428 -2 230 -7 469 -10 530 l-6 111 -111 12 c-62 7 -186 17 -277 22 -248 14 -393 25 -410 32 -8 3 -67 8 -130 11 -102 5 -117 4 -130 -12z"></path><path id="pQx0s7Kup" d="M8673 2760 c-79 -11 -183 -37 -199 -51 -9 -7 -8 -25 6 -80 10 -39 21 -74 25 -77 3 -3 27 2 53 12 71 27 201 33 257 12 54 -21 75 -48 75 -98 l0 -37 -61 32 c-226 116 -477 -98 -429 -366 30 -160 140 -259 288 -260 75 -1 110 13 156 62 17 17 33 31 38 31 4 0 8 -18 8 -39 0 -22 3 -42 8 -44 4 -2 63 3 132 12 l125 16 -3 265 c-2 146 -8 297 -13 335 -12 87 -49 165 -97 205 -70 58 -233 89 -369 70z m165 -454 c40 -22 62 -66 62 -126 0 -89 -45 -139 -125 -139 -80 0 -125 50 -125 139 0 89 45 139 125 139 22 0 50 -5 63 -13z"></path><path id="pS03jV560" d="M5032 2575 c-72 -20 -131 -63 -175 -127 -54 -79 -69 -129 -69 -233 0 -199 105 -335 281 -365 83 -14 149 -1 208 40 23 17 43 30 46 30 3 0 10 -14 16 -30 8 -25 15 -30 33 -26 13 3 61 12 108 21 46 9 87 18 90 20 4 2 0 37 -7 77 -9 51 -13 146 -11 318 2 135 -1 251 -5 258 -6 8 -41 12 -117 12 l-108 0 -7 -40 c-4 -22 -9 -40 -12 -40 -3 0 -22 13 -42 29 -81 64 -144 79 -229 56z m208 -228 c43 -22 70 -74 70 -134 0 -102 -47 -153 -141 -153 -53 0 -63 3 -96 34 -34 31 -37 39 -41 98 -5 77 12 119 61 148 37 23 109 26 147 7z"></path><path id="p55tMmlT3" d="M3855 2560 c-4 -6 -8 -226 -10 -488 -1 -262 -4 -486 -6 -497 -4 -19 4 -21 126 -29 79 -5 197 -5 300 0 159 9 175 12 235 40 182 86 259 285 193 499 -33 109 -105 188 -206 228 -45 17 -72 20 -201 18 l-148 -1 3 117 4 118 -142 3 c-92 2 -144 -1 -148 -8z m512 -470 c46 -28 63 -67 63 -147 0 -82 -21 -128 -71 -155 -28 -15 -52 -18 -129 -16 l-95 3 -3 155 c-1 85 0 160 2 167 4 9 32 13 103 13 80 0 104 -4 130 -20z"></path><path id="puL2TUg8z" d="M5712 2558 c-9 -9 -12 -83 -12 -267 -1 -170 -5 -279 -14 -324 -9 -50 -10 -70 -2 -72 23 -6 212 -35 229 -35 12 0 17 8 17 28 0 53 11 55 86 18 148 -74 161 -66 154 104 l-5 125 -86 5 c-127 7 -121 -3 -117 227 2 154 0 194 -10 198 -29 11 -228 5 -240 -7z"></path><path id="pWOjCndrw" d="M6292 2558 c-7 -9 -11 -182 -14 -511 -3 -491 -3 -498 17 -502 11 -2 65 -6 120 -9 55 -4 109 -7 120 -9 16 -2 20 3 18 28 -10 159 -14 405 -6 405 5 0 24 -15 42 -34 52 -54 122 -80 211 -79 170 1 264 89 263 244 0 103 -50 179 -159 245 -18 11 -14 19 49 111 37 54 67 101 67 105 0 9 -168 19 -214 13 -41 -7 -46 -11 -90 -80 -49 -77 -61 -85 -133 -85 l-42 0 -3 83 -3 82 -116 3 c-85 2 -119 -1 -127 -10z m462 -347 c21 -20 26 -34 26 -73 0 -66 -23 -88 -91 -88 -56 0 -80 10 -121 48 -24 22 -28 34 -28 77 0 29 3 55 8 59 4 4 46 6 94 4 75 -3 90 -6 112 -27z"></path><path id="p14Sae4PTa" d="M7215 2562 l-30 -7 -5 -325 c-3 -179 -9 -330 -13 -337 -11 -17 1 -18 151 -15 l138 3 -8 67 c-4 37 -7 187 -7 334 -1 185 -4 269 -12 274 -16 10 -178 14 -214 6z"></path><path id="p18dbJzQbi" d="M7615 2561 l-30 -6 -6 -290 c-4 -160 -11 -307 -17 -328 -5 -20 -7 -39 -3 -41 3 -2 33 -7 66 -11 33 -4 88 -12 122 -20 67 -13 73 -10 73 38 1 50 13 50 108 0 81 -42 98 -47 154 -46 83 1 150 32 186 86 l27 40 3 284 3 283 -28 11 c-29 11 -201 8 -222 -5 -8 -5 -11 -71 -11 -220 0 -201 -1 -215 -21 -240 -27 -35 -91 -36 -140 -3 l-34 23 -5 219 -5 219 -25 7 c-31 9 -155 9 -195 0z"></path><path id="pj91LsIg9" d="M9243 2563 c-7 -2 -13 -11 -13 -19 0 -8 82 -240 181 -515 l182 -500 136 3 136 3 56 140 c58 145 228 592 294 772 20 56 34 107 30 112 -10 16 -281 15 -292 -1 -4 -7 -17 -40 -28 -73 l-20 -60 -175 0 -175 0 -20 60 c-11 33 -24 66 -28 73 -6 8 -43 12 -130 11 -67 0 -128 -3 -134 -6z m547 -389 c31 -7 32 -8 26 -46 -10 -62 -71 -243 -81 -241 -11 2 -80 191 -90 246 l-7 36 44 4 c23 2 50 4 59 5 9 1 31 -1 49 -4z"></path><path id="p1Eyea4g1H" d="M10345 2560 c-4 -6 -8 -226 -10 -488 -1 -262 -4 -486 -6 -497 -4 -19 4 -21 126 -29 79 -5 197 -5 300 0 159 9 175 12 235 40 182 86 259 285 193 499 -33 109 -105 188 -206 228 -45 17 -72 20 -201 18 l-148 -1 3 117 4 118 -142 3 c-92 2 -144 -1 -148 -8z m512 -470 c46 -28 63 -67 63 -147 0 -82 -21 -128 -71 -155 -28 -15 -52 -18 -129 -16 l-95 3 -3 155 c-1 85 0 160 2 167 4 9 32 13 103 13 80 0 104 -4 130 -20z"></path><path id="p1A1JqbXt7" d="M11325 2560 c-4 -6 -8 -226 -10 -488 -1 -262 -4 -486 -6 -497 -4 -19 4 -21 126 -29 79 -5 197 -5 300 0 159 9 175 12 235 40 182 86 259 285 193 499 -33 109 -105 188 -206 228 -45 17 -72 20 -201 18 l-148 -1 3 117 4 118 -142 3 c-92 2 -144 -1 -148 -8z m512 -470 c46 -28 63 -67 63 -147 0 -82 -21 -128 -71 -155 -28 -15 -52 -18 -129 -16 l-95 3 -3 155 c-1 85 0 160 2 167 4 9 32 13 103 13 80 0 104 -4 130 -20z"></path><path id="p2DoTozcr" d="M1940 2004 c-6 -14 -10 -139 -10 -280 l0 -254 28 0 c15 0 33 -5 39 -11 7 -7 57 -12 130 -13 107 -1 124 1 165 23 26 13 61 39 80 58 31 32 33 38 33 106 -1 86 -10 127 -30 127 -8 0 -15 -4 -15 -8 0 -5 -16 -27 -35 -50 -25 -28 -47 -43 -71 -48 -19 -3 -37 -10 -40 -15 -3 -5 -16 -9 -30 -9 -23 0 -24 2 -24 78 0 42 -3 120 -6 173 -8 107 -1 98 -107 133 -70 23 -96 21 -107 -10z"></path><path id="plH564sbL" d="M7272 1810 c-42 -10 -78 -44 -93 -87 -9 -27 -7 -40 8 -70 50 -101 207 -101 256 0 17 33 17 42 5 79 -7 23 -24 49 -38 59 -30 21 -93 30 -138 19z"></path></g></g></svg>