<svg class="img-fluid" id="outputsvg" xmlns="http://www.w3.org/2000/svg" style="transform: none; transform-origin: 50% 50%; cursor: move;" width="343" height="344" viewBox="0 0 3430 3440"><g id="l44rx7iaWBLbMFFv1aVJqPa" fill="rgb(121,255,254)" style="transform: none;"><g style="transform: none;"><path id="pQuS4I5Q4" d="M870 3312 c-8 -9 -40 -47 -71 -83 l-56 -67 -5 -821 c-3 -452 -8 -824 -12 -828 -6 -6 -49 3 -194 39 -42 11 -43 10 -75 -26 -50 -58 -107 -157 -107 -185 0 -23 8 -29 68 -49 60 -20 126 -37 247 -62 72 -15 160 -37 178 -45 16 -7 17 42 17 952 l0 959 63 -8 c34 -5 89 -12 122 -17 33 -5 112 -14 175 -20 63 -6 149 -16 190 -21 41 -5 127 -15 191 -22 l116 -12 0 -220 c0 -122 1 -356 1 -522 l2 -301 93 -22 c50 -12 103 -25 117 -27 14 -3 34 -9 45 -14 11 -4 49 -14 85 -20 59 -11 200 -58 242 -81 10 -5 22 -9 28 -9 28 0 232 -112 268 -147 8 -8 28 -20 46 -27 18 -7 40 -26 51 -42 17 -27 78 -104 118 -148 9 -11 17 -23 17 -27 0 -4 6 -14 13 -21 7 -7 29 -48 50 -90 74 -151 100 -325 77 -513 -7 -58 -17 -108 -22 -111 -4 -3 -8 -13 -8 -23 0 -23 -41 -124 -91 -226 -21 -45 -39 -86 -39 -93 0 -7 -5 -12 -11 -12 -6 0 -9 -7 -5 -15 3 -8 1 -15 -4 -15 -6 0 -10 -7 -10 -15 0 -8 5 -15 10 -15 6 0 10 5 10 11 0 6 14 28 30 49 17 21 30 42 30 48 0 5 6 12 14 15 8 3 17 20 21 38 4 18 22 55 39 83 18 28 40 71 50 96 10 25 29 68 42 96 13 28 24 58 24 66 0 8 3 18 7 22 9 9 30 70 49 146 34 130 20 416 -25 525 -25 61 -34 81 -42 95 -4 8 -20 38 -35 65 -49 93 -179 239 -259 291 -22 15 -44 33 -48 41 -4 7 -12 13 -17 13 -5 0 -33 15 -62 33 -47 29 -70 41 -153 77 -11 5 -38 14 -60 21 -22 6 -58 17 -80 24 -64 20 -228 57 -315 70 -19 3 -41 9 -48 13 -10 7 -14 104 -18 428 -2 230 -7 469 -10 530 l-6 111 -111 12 c-62 7 -186 17 -277 22 -248 14 -393 25 -410 32 -8 3 -67 8 -130 11 -102 5 -117 4 -130 -12z"></path><path id="pEVFZVakP" d="M1720 1664 c-6 -14 -10 -139 -10 -280 l0 -254 28 0 c15 0 33 -5 39 -11 7 -7 57 -12 130 -13 107 -1 124 1 165 23 26 13 61 39 80 58 31 32 33 38 33 106 -1 86 -10 127 -30 127 -8 0 -15 -4 -15 -8 0 -5 -16 -27 -35 -50 -25 -28 -47 -43 -71 -48 -19 -3 -37 -10 -40 -15 -3 -5 -16 -9 -30 -9 -23 0 -24 2 -24 78 0 42 -3 120 -6 173 -8 107 -1 98 -107 133 -70 23 -96 21 -107 -10z"></path></g></g></svg>